# xmcd CD database file
# Copyright (C) 1993-1998 Ti Kan
#
# Track frame offsets:
#	150
#	11147
#	22767
#	33592
#	50935
#	61820
#	74960
#	88792
#	98955
#	112182
#	125540
#	139825
#	152897
#	163455
#	175235
#
# Disc length: 2489 seconds
#
# Revision: 1
# Processed by: cddbd v1.4b41PL1 Copyright (c) Steve Scherf et al.
# Submitted via: CDValet v3.31 - Copyright (c) 1997 Greg Leichner
#
DISCID=e309b70f
DTITLE=Crystal Gayle - Country Classics
DYEAR=1900
DGENRE=
TTITLE0=Somebody Loves You
TTITLE1=Don't It Make My Brown Eyes Blue
TTITLE2=Ready For The Times To Get Better
TTITLE3=You Never Miss A Real Good Thing ('Till He Says Goodbye
TTITLE3=)
TTITLE4=You
TTITLE5=The trouble With Me Is You
TTITLE6=River Road
TTITLE7=Wrong Road Again
TTITLE8=Talking In Your Sleep
TTITLE9=Why Have You Left The One You Left Me For
TTITLE10=Green Door
TTITLE11=Wayward Wind
TTITLE12=High Time
TTITLE13=Sweet Baby On My Mind
TTITLE14=Never Ending Song Of Love
EXTD=
EXTT0=
EXTT1=
EXTT2=
EXTT3=
EXTT4=
EXTT5=
EXTT6=
EXTT7=
EXTT8=
EXTT9=
EXTT10=
EXTT11=
EXTT12=
EXTT13=
EXTT14=
PLAYORDER=
